<svg width="18" height="18" viewBox="0 0 18 18" fill="none" xmlns="http://www.w3.org/2000/svg">
<path d="M10.8979 7.1L7.10293 10.895C6.61543 10.4075 6.31543 9.74 6.31543 8.9975C6.31543 7.5125 7.51543 6.3125 9.00043 6.3125C9.74293 6.3125 10.4104 6.6125 10.8979 7.1Z" fill="#BFBFC0" stroke="#BFBFC0" stroke-width="1.5" stroke-linecap="round" stroke-linejoin="round"/>
<path d="M13.3649 4.32687C12.0524 3.33687 10.5524 2.79688 8.99988 2.79688C6.35238 2.79688 3.88488 4.35687 2.16738 7.05687C1.49238 8.11437 1.49238 9.89188 2.16738 10.9494C2.75988 11.8794 3.44988 12.6819 4.19988 13.3269" stroke="#BFBFC0" stroke-width="1.5" stroke-linecap="round" stroke-linejoin="round"/>
<path d="M6.31543 14.6453C7.17043 15.0053 8.07793 15.2003 9.00043 15.2003C11.6479 15.2003 14.1154 13.6403 15.8329 10.9403C16.5079 9.88281 16.5079 8.10531 15.8329 7.04781C15.5854 6.65781 15.3154 6.29031 15.0379 5.94531" stroke="#BFBFC0" stroke-width="1.5" stroke-linecap="round" stroke-linejoin="round"/>
<path d="M11.6326 9.52344C11.4376 10.5809 10.5751 11.4434 9.51758 11.6384" stroke="#BFBFC0" stroke-width="1.5" stroke-linecap="round" stroke-linejoin="round"/>
<path d="M7.1025 10.8984L1.5 16.5009" stroke="#BFBFC0" stroke-width="1.5" stroke-linecap="round" stroke-linejoin="round"/>
<path d="M16.5 1.5L10.8975 7.1025" stroke="#BFBFC0" stroke-width="1.5" stroke-linecap="round" stroke-linejoin="round"/>
</svg>
